<mxfile host="app.diagrams.net" agent="Mozilla/5.0 (Windows NT 10.0; Win64; x64) AppleWebKit/537.36 (KHTML, like Gecko) Chrome/136.0.0.0 Safari/537.36" version="27.0.6">
  <diagram name="Page-1" id="aY8C0CWRc4ceLzLW_nXA">
    <mxGraphModel dx="2025" dy="656" grid="1" gridSize="10" guides="1" tooltips="1" connect="1" arrows="1" fold="1" page="1" pageScale="1" pageWidth="827" pageHeight="1169" math="0" shadow="0">
      <root>
        <mxCell id="0" />
        <mxCell id="1" parent="0" />
        <mxCell id="IEarKkadrqJ-7OaDFkOo-12" value="" style="edgeStyle=orthogonalEdgeStyle;rounded=0;orthogonalLoop=1;jettySize=auto;html=1;exitX=1;exitY=0.5;exitDx=0;exitDy=0;" parent="1" source="s6bERgY4n7bWf2fCO63s-3" target="IEarKkadrqJ-7OaDFkOo-10" edge="1">
          <mxGeometry relative="1" as="geometry" />
        </mxCell>
        <mxCell id="CXtI8FC8hVVEutXkW_Ce-2" style="edgeStyle=orthogonalEdgeStyle;rounded=0;orthogonalLoop=1;jettySize=auto;html=1;exitX=0.5;exitY=1;exitDx=0;exitDy=0;entryX=0;entryY=0.5;entryDx=0;entryDy=0;" parent="1" source="s6bERgY4n7bWf2fCO63s-3" target="CXtI8FC8hVVEutXkW_Ce-1" edge="1">
          <mxGeometry relative="1" as="geometry" />
        </mxCell>
        <mxCell id="CXtI8FC8hVVEutXkW_Ce-8" style="edgeStyle=orthogonalEdgeStyle;rounded=0;orthogonalLoop=1;jettySize=auto;html=1;exitX=0.5;exitY=1;exitDx=0;exitDy=0;entryX=0;entryY=0.5;entryDx=0;entryDy=0;" parent="1" source="s6bERgY4n7bWf2fCO63s-3" target="CXtI8FC8hVVEutXkW_Ce-3" edge="1">
          <mxGeometry relative="1" as="geometry" />
        </mxCell>
        <mxCell id="CXtI8FC8hVVEutXkW_Ce-9" style="edgeStyle=orthogonalEdgeStyle;rounded=0;orthogonalLoop=1;jettySize=auto;html=1;exitX=0.5;exitY=1;exitDx=0;exitDy=0;entryX=0;entryY=0.5;entryDx=0;entryDy=0;" parent="1" source="s6bERgY4n7bWf2fCO63s-3" target="CXtI8FC8hVVEutXkW_Ce-4" edge="1">
          <mxGeometry relative="1" as="geometry" />
        </mxCell>
        <mxCell id="CXtI8FC8hVVEutXkW_Ce-10" style="edgeStyle=orthogonalEdgeStyle;rounded=0;orthogonalLoop=1;jettySize=auto;html=1;exitX=0.5;exitY=1;exitDx=0;exitDy=0;entryX=0;entryY=0.5;entryDx=0;entryDy=0;" parent="1" source="s6bERgY4n7bWf2fCO63s-3" target="CXtI8FC8hVVEutXkW_Ce-5" edge="1">
          <mxGeometry relative="1" as="geometry" />
        </mxCell>
        <mxCell id="s6bERgY4n7bWf2fCO63s-12" style="edgeStyle=orthogonalEdgeStyle;rounded=0;orthogonalLoop=1;jettySize=auto;html=1;exitX=0;exitY=1;exitDx=0;exitDy=0;entryX=0;entryY=0.5;entryDx=0;entryDy=0;" edge="1" parent="1" source="S9vMv4I3xVLp12qS2ure-1" target="s6bERgY4n7bWf2fCO63s-8">
          <mxGeometry relative="1" as="geometry" />
        </mxCell>
        <mxCell id="s6bERgY4n7bWf2fCO63s-13" style="edgeStyle=orthogonalEdgeStyle;rounded=0;orthogonalLoop=1;jettySize=auto;html=1;exitX=0;exitY=1;exitDx=0;exitDy=0;entryX=0;entryY=0.5;entryDx=0;entryDy=0;" edge="1" parent="1" source="S9vMv4I3xVLp12qS2ure-1" target="s6bERgY4n7bWf2fCO63s-9">
          <mxGeometry relative="1" as="geometry" />
        </mxCell>
        <mxCell id="S9vMv4I3xVLp12qS2ure-1" value="Persona Natural" style="rounded=1;arcSize=10;whiteSpace=wrap;html=1;align=center;" parent="1" vertex="1">
          <mxGeometry x="60" y="230" width="100" height="40" as="geometry" />
        </mxCell>
        <mxCell id="IEarKkadrqJ-7OaDFkOo-15" style="edgeStyle=orthogonalEdgeStyle;rounded=0;orthogonalLoop=1;jettySize=auto;html=1;exitX=0.5;exitY=1;exitDx=0;exitDy=0;entryX=0.5;entryY=0;entryDx=0;entryDy=0;" parent="1" source="IEarKkadrqJ-7OaDFkOo-1" target="IEarKkadrqJ-7OaDFkOo-46" edge="1">
          <mxGeometry relative="1" as="geometry">
            <mxPoint x="670" y="160" as="targetPoint" />
          </mxGeometry>
        </mxCell>
        <mxCell id="s6bERgY4n7bWf2fCO63s-29" style="edgeStyle=orthogonalEdgeStyle;rounded=0;orthogonalLoop=1;jettySize=auto;html=1;exitX=1;exitY=0.5;exitDx=0;exitDy=0;entryX=0;entryY=0.5;entryDx=0;entryDy=0;" edge="1" parent="1" source="IEarKkadrqJ-7OaDFkOo-1" target="s6bERgY4n7bWf2fCO63s-27">
          <mxGeometry relative="1" as="geometry" />
        </mxCell>
        <mxCell id="s6bERgY4n7bWf2fCO63s-31" style="edgeStyle=orthogonalEdgeStyle;rounded=0;orthogonalLoop=1;jettySize=auto;html=1;exitX=1;exitY=0.5;exitDx=0;exitDy=0;entryX=0;entryY=0.5;entryDx=0;entryDy=0;" edge="1" parent="1" source="IEarKkadrqJ-7OaDFkOo-1" target="s6bERgY4n7bWf2fCO63s-28">
          <mxGeometry relative="1" as="geometry" />
        </mxCell>
        <mxCell id="IEarKkadrqJ-7OaDFkOo-1" value="Pedidos de compra" style="shape=ext;margin=3;double=1;whiteSpace=wrap;html=1;align=center;" parent="1" vertex="1">
          <mxGeometry x="620" y="70" width="100" height="40" as="geometry" />
        </mxCell>
        <mxCell id="s6bERgY4n7bWf2fCO63s-53" style="edgeStyle=orthogonalEdgeStyle;rounded=0;orthogonalLoop=1;jettySize=auto;html=1;exitX=0.5;exitY=1;exitDx=0;exitDy=0;entryX=0;entryY=0.5;entryDx=0;entryDy=0;" edge="1" parent="1" source="s6bERgY4n7bWf2fCO63s-58" target="s6bERgY4n7bWf2fCO63s-48">
          <mxGeometry relative="1" as="geometry" />
        </mxCell>
        <mxCell id="s6bERgY4n7bWf2fCO63s-54" style="edgeStyle=orthogonalEdgeStyle;rounded=0;orthogonalLoop=1;jettySize=auto;html=1;exitX=0.5;exitY=1;exitDx=0;exitDy=0;entryX=0;entryY=0.5;entryDx=0;entryDy=0;" edge="1" parent="1" source="s6bERgY4n7bWf2fCO63s-58" target="s6bERgY4n7bWf2fCO63s-49">
          <mxGeometry relative="1" as="geometry" />
        </mxCell>
        <mxCell id="s6bERgY4n7bWf2fCO63s-55" style="edgeStyle=orthogonalEdgeStyle;rounded=0;orthogonalLoop=1;jettySize=auto;html=1;exitX=0.5;exitY=1;exitDx=0;exitDy=0;entryX=0;entryY=0.5;entryDx=0;entryDy=0;" edge="1" parent="1" source="s6bERgY4n7bWf2fCO63s-58" target="s6bERgY4n7bWf2fCO63s-50">
          <mxGeometry relative="1" as="geometry" />
        </mxCell>
        <mxCell id="s6bERgY4n7bWf2fCO63s-33" style="edgeStyle=orthogonalEdgeStyle;rounded=0;orthogonalLoop=1;jettySize=auto;html=1;exitX=1;exitY=0.5;exitDx=0;exitDy=0;entryX=0;entryY=0.5;entryDx=0;entryDy=0;" edge="1" parent="1" source="IEarKkadrqJ-7OaDFkOo-6" target="s6bERgY4n7bWf2fCO63s-32">
          <mxGeometry relative="1" as="geometry" />
        </mxCell>
        <mxCell id="IEarKkadrqJ-7OaDFkOo-6" value="Inventario" style="shape=ext;margin=3;double=1;whiteSpace=wrap;html=1;align=center;" parent="1" vertex="1">
          <mxGeometry x="620" y="900" width="100" height="40" as="geometry" />
        </mxCell>
        <mxCell id="IEarKkadrqJ-7OaDFkOo-7" value="Entidades Fuerte&lt;span style=&quot;background-color: transparent; color: light-dark(rgb(0, 0, 0), rgb(255, 255, 255));&quot;&gt;s&lt;/span&gt;" style="text;html=1;align=center;verticalAlign=middle;whiteSpace=wrap;rounded=0;" parent="1" vertex="1">
          <mxGeometry x="-20" y="20" width="60" height="30" as="geometry" />
        </mxCell>
        <mxCell id="IEarKkadrqJ-7OaDFkOo-8" value="Entidades dÃ©biles" style="text;html=1;align=center;verticalAlign=middle;whiteSpace=wrap;rounded=0;strokeColor=none;fillColor=none;" parent="1" vertex="1">
          <mxGeometry x="645" y="20" width="60" height="30" as="geometry" />
        </mxCell>
        <mxCell id="IEarKkadrqJ-7OaDFkOo-37" value="" style="edgeStyle=orthogonalEdgeStyle;rounded=0;orthogonalLoop=1;jettySize=auto;html=1;" parent="1" source="IEarKkadrqJ-7OaDFkOo-9" target="IEarKkadrqJ-7OaDFkOo-36" edge="1">
          <mxGeometry relative="1" as="geometry" />
        </mxCell>
        <mxCell id="IEarKkadrqJ-7OaDFkOo-42" style="edgeStyle=orthogonalEdgeStyle;rounded=0;orthogonalLoop=1;jettySize=auto;html=1;entryX=1;entryY=0.5;entryDx=0;entryDy=0;" parent="1" source="IEarKkadrqJ-7OaDFkOo-9" target="IEarKkadrqJ-7OaDFkOo-26" edge="1">
          <mxGeometry relative="1" as="geometry">
            <mxPoint x="470" y="670" as="targetPoint" />
          </mxGeometry>
        </mxCell>
        <mxCell id="s6bERgY4n7bWf2fCO63s-41" style="edgeStyle=orthogonalEdgeStyle;rounded=0;orthogonalLoop=1;jettySize=auto;html=1;exitX=1;exitY=0.5;exitDx=0;exitDy=0;entryX=0;entryY=0.5;entryDx=0;entryDy=0;" edge="1" parent="1" source="IEarKkadrqJ-7OaDFkOo-9" target="s6bERgY4n7bWf2fCO63s-36">
          <mxGeometry relative="1" as="geometry" />
        </mxCell>
        <mxCell id="s6bERgY4n7bWf2fCO63s-42" style="edgeStyle=orthogonalEdgeStyle;rounded=0;orthogonalLoop=1;jettySize=auto;html=1;exitX=1;exitY=0.5;exitDx=0;exitDy=0;entryX=0;entryY=0.5;entryDx=0;entryDy=0;" edge="1" parent="1" source="IEarKkadrqJ-7OaDFkOo-9" target="s6bERgY4n7bWf2fCO63s-37">
          <mxGeometry relative="1" as="geometry" />
        </mxCell>
        <mxCell id="s6bERgY4n7bWf2fCO63s-43" style="edgeStyle=orthogonalEdgeStyle;rounded=0;orthogonalLoop=1;jettySize=auto;html=1;exitX=1;exitY=0.5;exitDx=0;exitDy=0;entryX=0;entryY=0.5;entryDx=0;entryDy=0;" edge="1" parent="1" source="IEarKkadrqJ-7OaDFkOo-9" target="s6bERgY4n7bWf2fCO63s-34">
          <mxGeometry relative="1" as="geometry" />
        </mxCell>
        <mxCell id="s6bERgY4n7bWf2fCO63s-44" style="edgeStyle=orthogonalEdgeStyle;rounded=0;orthogonalLoop=1;jettySize=auto;html=1;exitX=1;exitY=0.5;exitDx=0;exitDy=0;entryX=0;entryY=0.5;entryDx=0;entryDy=0;" edge="1" parent="1" source="IEarKkadrqJ-7OaDFkOo-9" target="s6bERgY4n7bWf2fCO63s-35">
          <mxGeometry relative="1" as="geometry" />
        </mxCell>
        <mxCell id="s6bERgY4n7bWf2fCO63s-45" style="edgeStyle=orthogonalEdgeStyle;rounded=0;orthogonalLoop=1;jettySize=auto;html=1;exitX=1;exitY=0.5;exitDx=0;exitDy=0;entryX=0;entryY=0.5;entryDx=0;entryDy=0;" edge="1" parent="1" source="IEarKkadrqJ-7OaDFkOo-9" target="s6bERgY4n7bWf2fCO63s-40">
          <mxGeometry relative="1" as="geometry" />
        </mxCell>
        <mxCell id="s6bERgY4n7bWf2fCO63s-46" style="edgeStyle=orthogonalEdgeStyle;rounded=0;orthogonalLoop=1;jettySize=auto;html=1;exitX=1;exitY=0.5;exitDx=0;exitDy=0;entryX=0;entryY=0.5;entryDx=0;entryDy=0;" edge="1" parent="1" source="IEarKkadrqJ-7OaDFkOo-9" target="s6bERgY4n7bWf2fCO63s-39">
          <mxGeometry relative="1" as="geometry" />
        </mxCell>
        <mxCell id="s6bERgY4n7bWf2fCO63s-47" style="edgeStyle=orthogonalEdgeStyle;rounded=0;orthogonalLoop=1;jettySize=auto;html=1;exitX=1;exitY=0.5;exitDx=0;exitDy=0;entryX=0;entryY=0.5;entryDx=0;entryDy=0;" edge="1" parent="1" source="IEarKkadrqJ-7OaDFkOo-9" target="s6bERgY4n7bWf2fCO63s-38">
          <mxGeometry relative="1" as="geometry" />
        </mxCell>
        <mxCell id="IEarKkadrqJ-7OaDFkOo-9" value="Libros" style="shape=ext;margin=3;double=1;whiteSpace=wrap;html=1;align=center;" parent="1" vertex="1">
          <mxGeometry x="620" y="650" width="100" height="40" as="geometry" />
        </mxCell>
        <mxCell id="IEarKkadrqJ-7OaDFkOo-17" value="" style="edgeStyle=orthogonalEdgeStyle;rounded=0;orthogonalLoop=1;jettySize=auto;html=1;exitX=1;exitY=0.5;exitDx=0;exitDy=0;" parent="1" source="IEarKkadrqJ-7OaDFkOo-10" target="IEarKkadrqJ-7OaDFkOo-1" edge="1">
          <mxGeometry relative="1" as="geometry">
            <mxPoint x="470" y="90" as="sourcePoint" />
          </mxGeometry>
        </mxCell>
        <mxCell id="IEarKkadrqJ-7OaDFkOo-10" value="Realiza" style="shape=rhombus;perimeter=rhombusPerimeter;whiteSpace=wrap;html=1;align=center;" parent="1" vertex="1">
          <mxGeometry x="320" y="60" width="120" height="60" as="geometry" />
        </mxCell>
        <mxCell id="IEarKkadrqJ-7OaDFkOo-16" value="" style="edgeStyle=orthogonalEdgeStyle;rounded=0;orthogonalLoop=1;jettySize=auto;html=1;" parent="1" target="IEarKkadrqJ-7OaDFkOo-9" edge="1">
          <mxGeometry relative="1" as="geometry">
            <mxPoint x="670" y="450" as="sourcePoint" />
          </mxGeometry>
        </mxCell>
        <mxCell id="IEarKkadrqJ-7OaDFkOo-22" value="(1,1)" style="text;html=1;align=center;verticalAlign=middle;whiteSpace=wrap;rounded=0;" parent="1" vertex="1">
          <mxGeometry x="70" y="50" width="60" height="30" as="geometry" />
        </mxCell>
        <mxCell id="IEarKkadrqJ-7OaDFkOo-23" value="(0,N)" style="text;html=1;align=center;verticalAlign=middle;whiteSpace=wrap;rounded=0;" parent="1" vertex="1">
          <mxGeometry x="560" y="50" width="60" height="30" as="geometry" />
        </mxCell>
        <mxCell id="IEarKkadrqJ-7OaDFkOo-24" value="(1,N)" style="text;html=1;align=center;verticalAlign=middle;whiteSpace=wrap;rounded=0;" parent="1" vertex="1">
          <mxGeometry x="670" y="110" width="60" height="30" as="geometry" />
        </mxCell>
        <mxCell id="IEarKkadrqJ-7OaDFkOo-25" value="(1,N)" style="text;html=1;align=center;verticalAlign=middle;whiteSpace=wrap;rounded=0;" parent="1" vertex="1">
          <mxGeometry x="670" y="473" width="60" height="30" as="geometry" />
        </mxCell>
        <mxCell id="IEarKkadrqJ-7OaDFkOo-44" value="" style="edgeStyle=orthogonalEdgeStyle;rounded=0;orthogonalLoop=1;jettySize=auto;html=1;entryX=1;entryY=0.5;entryDx=0;entryDy=0;" parent="1" source="IEarKkadrqJ-7OaDFkOo-26" target="s6bERgY4n7bWf2fCO63s-58" edge="1">
          <mxGeometry relative="1" as="geometry">
            <mxPoint x="180" y="670" as="targetPoint" />
          </mxGeometry>
        </mxCell>
        <mxCell id="IEarKkadrqJ-7OaDFkOo-26" value="Pertenece" style="shape=rhombus;perimeter=rhombusPerimeter;whiteSpace=wrap;html=1;align=center;" parent="1" vertex="1">
          <mxGeometry x="315" y="640" width="130" height="60" as="geometry" />
        </mxCell>
        <mxCell id="IEarKkadrqJ-7OaDFkOo-30" value="(1,N)" style="text;html=1;align=center;verticalAlign=middle;whiteSpace=wrap;rounded=0;" parent="1" vertex="1">
          <mxGeometry x="550" y="630" width="60" height="30" as="geometry" />
        </mxCell>
        <mxCell id="IEarKkadrqJ-7OaDFkOo-33" value="(1,1)" style="text;html=1;align=center;verticalAlign=middle;whiteSpace=wrap;rounded=0;" parent="1" vertex="1">
          <mxGeometry x="60" y="640" width="60" height="30" as="geometry" />
        </mxCell>
        <mxCell id="IEarKkadrqJ-7OaDFkOo-38" value="" style="edgeStyle=orthogonalEdgeStyle;rounded=0;orthogonalLoop=1;jettySize=auto;html=1;" parent="1" source="IEarKkadrqJ-7OaDFkOo-36" target="IEarKkadrqJ-7OaDFkOo-6" edge="1">
          <mxGeometry relative="1" as="geometry" />
        </mxCell>
        <mxCell id="IEarKkadrqJ-7OaDFkOo-36" value="Existe" style="shape=rhombus;perimeter=rhombusPerimeter;whiteSpace=wrap;html=1;align=center;" parent="1" vertex="1">
          <mxGeometry x="610" y="800" width="120" height="60" as="geometry" />
        </mxCell>
        <mxCell id="IEarKkadrqJ-7OaDFkOo-39" value="(1, N)" style="text;html=1;align=center;verticalAlign=middle;whiteSpace=wrap;rounded=0;" parent="1" vertex="1">
          <mxGeometry x="670" y="690" width="60" height="30" as="geometry" />
        </mxCell>
        <mxCell id="IEarKkadrqJ-7OaDFkOo-40" value="(0,1)" style="text;html=1;align=center;verticalAlign=middle;whiteSpace=wrap;rounded=0;" parent="1" vertex="1">
          <mxGeometry x="669" y="871" width="60" height="30" as="geometry" />
        </mxCell>
        <mxCell id="IEarKkadrqJ-7OaDFkOo-46" value="Contiene" style="shape=associativeEntity;whiteSpace=wrap;html=1;align=center;" parent="1" vertex="1">
          <mxGeometry x="600" y="413" width="140" height="60" as="geometry" />
        </mxCell>
        <mxCell id="IEarKkadrqJ-7OaDFkOo-47" value="Items" style="text;html=1;align=center;verticalAlign=middle;whiteSpace=wrap;rounded=0;" parent="1" vertex="1">
          <mxGeometry x="600" y="390" width="60" height="30" as="geometry" />
        </mxCell>
        <mxCell id="IEarKkadrqJ-7OaDFkOo-49" value="(1,N)" style="text;html=1;align=center;verticalAlign=middle;whiteSpace=wrap;rounded=0;" parent="1" vertex="1">
          <mxGeometry x="669" y="370" width="60" height="30" as="geometry" />
        </mxCell>
        <mxCell id="IEarKkadrqJ-7OaDFkOo-50" value="(1,N)" style="text;html=1;align=center;verticalAlign=middle;whiteSpace=wrap;rounded=0;" parent="1" vertex="1">
          <mxGeometry x="670" y="610" width="60" height="30" as="geometry" />
        </mxCell>
        <mxCell id="CXtI8FC8hVVEutXkW_Ce-1" value="Nombre" style="ellipse;whiteSpace=wrap;html=1;align=center;" parent="1" vertex="1">
          <mxGeometry x="160" y="413" width="100" height="40" as="geometry" />
        </mxCell>
        <mxCell id="s6bERgY4n7bWf2fCO63s-22" style="edgeStyle=orthogonalEdgeStyle;rounded=0;orthogonalLoop=1;jettySize=auto;html=1;exitX=1;exitY=0.5;exitDx=0;exitDy=0;entryX=0;entryY=0.5;entryDx=0;entryDy=0;" edge="1" parent="1" source="CXtI8FC8hVVEutXkW_Ce-3" target="s6bERgY4n7bWf2fCO63s-16">
          <mxGeometry relative="1" as="geometry" />
        </mxCell>
        <mxCell id="s6bERgY4n7bWf2fCO63s-23" style="edgeStyle=orthogonalEdgeStyle;rounded=0;orthogonalLoop=1;jettySize=auto;html=1;exitX=1;exitY=0.5;exitDx=0;exitDy=0;entryX=0;entryY=0.5;entryDx=0;entryDy=0;" edge="1" parent="1" source="CXtI8FC8hVVEutXkW_Ce-3" target="s6bERgY4n7bWf2fCO63s-18">
          <mxGeometry relative="1" as="geometry" />
        </mxCell>
        <mxCell id="s6bERgY4n7bWf2fCO63s-24" style="edgeStyle=orthogonalEdgeStyle;rounded=0;orthogonalLoop=1;jettySize=auto;html=1;exitX=1;exitY=0.5;exitDx=0;exitDy=0;entryX=0;entryY=0.5;entryDx=0;entryDy=0;" edge="1" parent="1" source="CXtI8FC8hVVEutXkW_Ce-3" target="s6bERgY4n7bWf2fCO63s-21">
          <mxGeometry relative="1" as="geometry" />
        </mxCell>
        <mxCell id="s6bERgY4n7bWf2fCO63s-25" style="edgeStyle=orthogonalEdgeStyle;rounded=0;orthogonalLoop=1;jettySize=auto;html=1;exitX=1;exitY=0.5;exitDx=0;exitDy=0;entryX=0;entryY=0.5;entryDx=0;entryDy=0;" edge="1" parent="1" source="CXtI8FC8hVVEutXkW_Ce-3" target="s6bERgY4n7bWf2fCO63s-17">
          <mxGeometry relative="1" as="geometry" />
        </mxCell>
        <mxCell id="CXtI8FC8hVVEutXkW_Ce-3" value="DirecciÃ³n" style="ellipse;whiteSpace=wrap;html=1;align=center;" parent="1" vertex="1">
          <mxGeometry x="160" y="466" width="100" height="40" as="geometry" />
        </mxCell>
        <mxCell id="CXtI8FC8hVVEutXkW_Ce-4" value="TelÃ©fono" style="ellipse;whiteSpace=wrap;html=1;align=center;" parent="1" vertex="1">
          <mxGeometry x="160" y="516" width="100" height="40" as="geometry" />
        </mxCell>
        <mxCell id="CXtI8FC8hVVEutXkW_Ce-5" value="e-mail" style="ellipse;whiteSpace=wrap;html=1;align=center;" parent="1" vertex="1">
          <mxGeometry x="160" y="568" width="100" height="40" as="geometry" />
        </mxCell>
        <mxCell id="s6bERgY4n7bWf2fCO63s-6" style="edgeStyle=orthogonalEdgeStyle;rounded=0;orthogonalLoop=1;jettySize=auto;html=1;exitX=0.5;exitY=1;exitDx=0;exitDy=0;exitPerimeter=0;entryX=0.5;entryY=0;entryDx=0;entryDy=0;" edge="1" parent="1" source="s6bERgY4n7bWf2fCO63s-1" target="S9vMv4I3xVLp12qS2ure-1">
          <mxGeometry relative="1" as="geometry" />
        </mxCell>
        <mxCell id="s6bERgY4n7bWf2fCO63s-7" style="edgeStyle=orthogonalEdgeStyle;rounded=0;orthogonalLoop=1;jettySize=auto;html=1;exitX=0.5;exitY=1;exitDx=0;exitDy=0;exitPerimeter=0;entryX=0.5;entryY=0;entryDx=0;entryDy=0;" edge="1" parent="1" source="s6bERgY4n7bWf2fCO63s-1" target="s6bERgY4n7bWf2fCO63s-5">
          <mxGeometry relative="1" as="geometry" />
        </mxCell>
        <mxCell id="s6bERgY4n7bWf2fCO63s-1" value="ID" style="strokeWidth=2;html=1;shape=mxgraph.flowchart.extract_or_measurement;whiteSpace=wrap;" vertex="1" parent="1">
          <mxGeometry x="80" y="150" width="60" height="40" as="geometry" />
        </mxCell>
        <mxCell id="s6bERgY4n7bWf2fCO63s-3" value="Clientes" style="whiteSpace=wrap;html=1;align=center;" vertex="1" parent="1">
          <mxGeometry x="-40" y="70" width="100" height="40" as="geometry" />
        </mxCell>
        <mxCell id="s6bERgY4n7bWf2fCO63s-4" style="edgeStyle=orthogonalEdgeStyle;rounded=0;orthogonalLoop=1;jettySize=auto;html=1;exitX=1;exitY=1;exitDx=0;exitDy=0;entryX=0.5;entryY=0;entryDx=0;entryDy=0;entryPerimeter=0;" edge="1" parent="1" source="s6bERgY4n7bWf2fCO63s-3" target="s6bERgY4n7bWf2fCO63s-1">
          <mxGeometry relative="1" as="geometry" />
        </mxCell>
        <mxCell id="s6bERgY4n7bWf2fCO63s-14" style="edgeStyle=orthogonalEdgeStyle;rounded=0;orthogonalLoop=1;jettySize=auto;html=1;exitX=0;exitY=1;exitDx=0;exitDy=0;entryX=0;entryY=0.5;entryDx=0;entryDy=0;" edge="1" parent="1" source="s6bERgY4n7bWf2fCO63s-5" target="s6bERgY4n7bWf2fCO63s-10">
          <mxGeometry relative="1" as="geometry" />
        </mxCell>
        <mxCell id="s6bERgY4n7bWf2fCO63s-15" style="edgeStyle=orthogonalEdgeStyle;rounded=0;orthogonalLoop=1;jettySize=auto;html=1;exitX=0;exitY=1;exitDx=0;exitDy=0;entryX=0;entryY=0.5;entryDx=0;entryDy=0;" edge="1" parent="1" source="s6bERgY4n7bWf2fCO63s-5" target="s6bERgY4n7bWf2fCO63s-11">
          <mxGeometry relative="1" as="geometry" />
        </mxCell>
        <mxCell id="s6bERgY4n7bWf2fCO63s-5" value="Persona JurÃ­dica" style="rounded=1;arcSize=10;whiteSpace=wrap;html=1;align=center;" vertex="1" parent="1">
          <mxGeometry x="180" y="230" width="100" height="40" as="geometry" />
        </mxCell>
        <mxCell id="s6bERgY4n7bWf2fCO63s-8" value="DNI" style="ellipse;whiteSpace=wrap;html=1;align=center;" vertex="1" parent="1">
          <mxGeometry x="90" y="290" width="80" height="30" as="geometry" />
        </mxCell>
        <mxCell id="s6bERgY4n7bWf2fCO63s-9" value="RUT" style="ellipse;whiteSpace=wrap;html=1;align=center;" vertex="1" parent="1">
          <mxGeometry x="90" y="330" width="80" height="30" as="geometry" />
        </mxCell>
        <mxCell id="s6bERgY4n7bWf2fCO63s-10" value="NIT" style="ellipse;whiteSpace=wrap;html=1;align=center;" vertex="1" parent="1">
          <mxGeometry x="200" y="290" width="80" height="30" as="geometry" />
        </mxCell>
        <mxCell id="s6bERgY4n7bWf2fCO63s-11" value="RUES" style="ellipse;whiteSpace=wrap;html=1;align=center;" vertex="1" parent="1">
          <mxGeometry x="200" y="330" width="80" height="30" as="geometry" />
        </mxCell>
        <mxCell id="s6bERgY4n7bWf2fCO63s-16" value="Calle" style="ellipse;whiteSpace=wrap;html=1;align=center;dashed=1;" vertex="1" parent="1">
          <mxGeometry x="315" y="407.5" width="100" height="37" as="geometry" />
        </mxCell>
        <mxCell id="s6bERgY4n7bWf2fCO63s-17" value="RegiÃ³n" style="ellipse;whiteSpace=wrap;html=1;align=center;dashed=1;" vertex="1" parent="1">
          <mxGeometry x="315" y="534.5" width="100" height="34" as="geometry" />
        </mxCell>
        <mxCell id="s6bERgY4n7bWf2fCO63s-18" value="Comuna" style="ellipse;whiteSpace=wrap;html=1;align=center;dashed=1;" vertex="1" parent="1">
          <mxGeometry x="315" y="454.5" width="100" height="30" as="geometry" />
        </mxCell>
        <mxCell id="s6bERgY4n7bWf2fCO63s-21" value="Ciudad" style="ellipse;whiteSpace=wrap;html=1;align=center;dashed=1;" vertex="1" parent="1">
          <mxGeometry x="315" y="495.5" width="100" height="30" as="geometry" />
        </mxCell>
        <mxCell id="s6bERgY4n7bWf2fCO63s-27" value="Fecha" style="ellipse;whiteSpace=wrap;html=1;align=center;" vertex="1" parent="1">
          <mxGeometry x="800" y="70" width="100" height="40" as="geometry" />
        </mxCell>
        <mxCell id="s6bERgY4n7bWf2fCO63s-28" value="Valor" style="ellipse;whiteSpace=wrap;html=1;align=center;" vertex="1" parent="1">
          <mxGeometry x="800" y="120" width="100" height="40" as="geometry" />
        </mxCell>
        <mxCell id="s6bERgY4n7bWf2fCO63s-32" value="Cantidad" style="ellipse;whiteSpace=wrap;html=1;align=center;" vertex="1" parent="1">
          <mxGeometry x="800" y="900" width="100" height="40" as="geometry" />
        </mxCell>
        <mxCell id="s6bERgY4n7bWf2fCO63s-34" value="AÃ±o PublicaciÃ³n" style="ellipse;whiteSpace=wrap;html=1;align=center;" vertex="1" parent="1">
          <mxGeometry x="800" y="596" width="100" height="40" as="geometry" />
        </mxCell>
        <mxCell id="s6bERgY4n7bWf2fCO63s-35" value="ISBN" style="ellipse;whiteSpace=wrap;html=1;align=center;" vertex="1" parent="1">
          <mxGeometry x="800" y="650" width="100" height="40" as="geometry" />
        </mxCell>
        <mxCell id="s6bERgY4n7bWf2fCO63s-36" value="TÃ­tulo" style="ellipse;whiteSpace=wrap;html=1;align=center;" vertex="1" parent="1">
          <mxGeometry x="800" y="495.5" width="100" height="40" as="geometry" />
        </mxCell>
        <mxCell id="s6bERgY4n7bWf2fCO63s-37" value="Editorial" style="ellipse;whiteSpace=wrap;html=1;align=center;" vertex="1" parent="1">
          <mxGeometry x="800" y="543" width="100" height="40" as="geometry" />
        </mxCell>
        <mxCell id="s6bERgY4n7bWf2fCO63s-38" value="CategorÃ­a" style="ellipse;whiteSpace=wrap;html=1;align=center;" vertex="1" parent="1">
          <mxGeometry x="800" y="800" width="100" height="40" as="geometry" />
        </mxCell>
        <mxCell id="s6bERgY4n7bWf2fCO63s-39" value="Valor" style="ellipse;whiteSpace=wrap;html=1;align=center;" vertex="1" parent="1">
          <mxGeometry x="800" y="750" width="100" height="40" as="geometry" />
        </mxCell>
        <mxCell id="s6bERgY4n7bWf2fCO63s-40" value="Autor" style="ellipse;whiteSpace=wrap;html=1;align=center;" vertex="1" parent="1">
          <mxGeometry x="800" y="700" width="100" height="40" as="geometry" />
        </mxCell>
        <mxCell id="s6bERgY4n7bWf2fCO63s-48" value="Nombre Contacto" style="ellipse;whiteSpace=wrap;html=1;align=center;" vertex="1" parent="1">
          <mxGeometry x="150" y="720" width="100" height="40" as="geometry" />
        </mxCell>
        <mxCell id="s6bERgY4n7bWf2fCO63s-49" value="e-mail" style="ellipse;whiteSpace=wrap;html=1;align=center;" vertex="1" parent="1">
          <mxGeometry x="150" y="780" width="100" height="40" as="geometry" />
        </mxCell>
        <mxCell id="s6bERgY4n7bWf2fCO63s-56" style="edgeStyle=orthogonalEdgeStyle;rounded=0;orthogonalLoop=1;jettySize=auto;html=1;exitX=1;exitY=0.5;exitDx=0;exitDy=0;entryX=0;entryY=0.5;entryDx=0;entryDy=0;" edge="1" parent="1" source="s6bERgY4n7bWf2fCO63s-50" target="s6bERgY4n7bWf2fCO63s-51">
          <mxGeometry relative="1" as="geometry" />
        </mxCell>
        <mxCell id="s6bERgY4n7bWf2fCO63s-57" style="edgeStyle=orthogonalEdgeStyle;rounded=0;orthogonalLoop=1;jettySize=auto;html=1;exitX=1;exitY=0.5;exitDx=0;exitDy=0;entryX=0;entryY=0.5;entryDx=0;entryDy=0;" edge="1" parent="1" source="s6bERgY4n7bWf2fCO63s-50" target="s6bERgY4n7bWf2fCO63s-52">
          <mxGeometry relative="1" as="geometry" />
        </mxCell>
        <mxCell id="s6bERgY4n7bWf2fCO63s-50" value="TelÃ©fono" style="ellipse;whiteSpace=wrap;html=1;align=center;" vertex="1" parent="1">
          <mxGeometry x="150" y="841" width="100" height="40" as="geometry" />
        </mxCell>
        <mxCell id="s6bERgY4n7bWf2fCO63s-51" value="TelÃ©fono_1" style="ellipse;whiteSpace=wrap;html=1;align=center;dashed=1;" vertex="1" parent="1">
          <mxGeometry x="290" y="841" width="100" height="40" as="geometry" />
        </mxCell>
        <mxCell id="s6bERgY4n7bWf2fCO63s-52" value="TelÃ©fono_2" style="ellipse;whiteSpace=wrap;html=1;align=center;dashed=1;" vertex="1" parent="1">
          <mxGeometry x="290" y="887" width="100" height="40" as="geometry" />
        </mxCell>
        <mxCell id="s6bERgY4n7bWf2fCO63s-58" value="Editoriales" style="whiteSpace=wrap;html=1;align=center;" vertex="1" parent="1">
          <mxGeometry x="-40" y="650" width="100" height="40" as="geometry" />
        </mxCell>
      </root>
    </mxGraphModel>
  </diagram>
</mxfile>
